# xmcd
# 
# Track frame offsets:
#     150
#     15005
#     31490
#     49725
#     64238
# 
# Disc length: 1062
# 
# Revision: 0
# Processed by: cddbd v1.5.2PL0 Copyright (c) Steve Scherf et al.
# Submitted via: fre:ac v1.0.27
# 
DISCID=34042405
DTITLE=Tara Thompson - Someone To Take Your Place
DYEAR=2016
DGENRE=Country
TTITLE0=Someone To Take Your Place
TTITLE1=Side Effects
TTITLE2=Vows
TTITLE3=Pregnant At The Prom
TTITLE4=Jail
EXTD=
EXTT0=
EXTT1=
EXTT2=
EXTT3=
EXTT4=
PLAYORDER=
